<svg width="242" height="80" viewBox="0 0 242 80" fill="none" xmlns="http://www.w3.org/2000/svg"><path d="M237.925 62V1.026h3.299V62h-3.299zm-39.508-10.691c0-3.703 1.392-6.64 4.176-8.812 2.785-2.172 6.627-3.258 11.527-3.258h10.441v-4.343c0-3.146-.807-5.471-2.422-6.975-1.587-1.503-4.135-2.255-7.643-2.255s-6.195.696-8.06 2.088c-1.838 1.364-2.757 3.202-2.757 5.513v1.378h-3.299v-1.754c0-2.84 1.253-5.248 3.759-7.225 2.505-2.005 5.958-3.007 10.357-3.007 4.288 0 7.587.947 9.898 2.84 2.311 1.865 3.466 4.956 3.466 9.271v17.207c0 1.893.139 3.675.418 5.346.278 1.67.668 3.062 1.169 4.176V62h-3.09c-.418-.807-.794-1.852-1.128-3.132a23.034 23.034 0 0 1-.585-3.884c-.835 2.032-2.436 3.8-4.802 5.304-2.367 1.503-5.36 2.255-8.979 2.255-3.87 0-6.919-.96-9.147-2.882-2.199-1.92-3.299-4.705-3.299-8.352zm3.299-.126c0 2.757.836 4.845 2.506 6.265 1.671 1.42 4.065 2.13 7.184 2.13 3.508 0 6.57-1.03 9.187-3.09 2.645-2.089 3.968-4.539 3.968-7.351v-7.142h-10.023c-4.288 0-7.504.822-9.648 2.465-2.116 1.642-3.174 3.883-3.174 6.723zm-27.187-24.682v-2.965h20.547v2.965h-20.547zm6.891 24.975V8.794h3.341v42.932c0 3.286.515 5.457 1.545 6.515 1.03 1.058 2.52 1.587 4.468 1.587.808 0 1.546-.055 2.214-.167a8.693 8.693 0 0 0 1.754-.543v3.05c-.445.166-1.072.32-1.879.459-.78.166-1.671.25-2.673.25-2.701 0-4.845-.807-6.432-2.422-1.559-1.615-2.338-4.608-2.338-8.98zM165.842 62V23.536h3.299V62h-3.299zm-.794-52.956c0-.696.209-1.28.627-1.754.445-.473 1.058-.71 1.837-.71.808 0 1.42.237 1.838.71.418.446.626 1.03.626 1.754s-.222 1.323-.668 1.796c-.417.473-1.016.71-1.796.71-.779 0-1.392-.237-1.837-.71-.418-.501-.627-1.1-.627-1.796zM125.624 75.28l1.712-2.672c1.337 1.17 3.049 2.172 5.137 3.007 2.116.863 4.538 1.294 7.267 1.294 3.703 0 6.71-1.294 9.021-3.884 2.338-2.589 3.508-6.682 3.508-12.278v-4.552c-1.17 1.782-2.854 3.3-5.054 4.552-2.171 1.253-4.802 1.88-7.893 1.88-4.817 0-8.603-1.782-11.359-5.346-2.757-3.564-4.135-8.27-4.135-14.116v-1.086c0-5.763 1.378-10.427 4.135-13.99 2.756-3.592 6.584-5.388 11.484-5.388 2.924 0 5.527.626 7.81 1.88 2.283 1.252 3.982 2.77 5.095 4.551h.042l.042-5.596h3.132v37.211c0 6.376-1.434 11.165-4.302 14.367-2.839 3.23-6.751 4.844-11.735 4.844-2.923 0-5.568-.445-7.935-1.336s-4.357-2.005-5.972-3.341zm1.545-31.99c0 4.956 1.1 8.924 3.299 11.903 2.228 2.95 5.485 4.427 9.773 4.427 2.951 0 5.457-.738 7.517-2.214 2.088-1.503 3.592-3.244 4.511-5.22V33.058c-.919-1.949-2.436-3.661-4.552-5.137-2.089-1.475-4.608-2.213-7.56-2.213-4.287 0-7.531 1.503-9.73 4.51-2.172 3.007-3.258 6.933-3.258 11.777v1.295zM112.803 62V23.536h3.299V62h-3.299zm-.794-52.956c0-.696.209-1.28.626-1.754.446-.473 1.058-.71 1.838-.71.807 0 1.42.237 1.838.71.417.446.626 1.03.626 1.754s-.223 1.323-.668 1.796c-.418.473-1.016.71-1.796.71s-1.392-.237-1.838-.71c-.417-.501-.626-1.1-.626-1.796zm-41.22 34.121v-1.128c0-5.735 1.42-10.385 4.26-13.949 2.84-3.591 6.64-5.387 11.4-5.387 3.091 0 5.709.57 7.852 1.712 2.172 1.142 3.815 2.534 4.928 4.176V1.026h3.3V62h-3.132l-.042-6.056h-.042c-1.086 1.782-2.728 3.355-4.928 4.72-2.2 1.364-4.817 2.046-7.852 2.046-4.872 0-8.714-1.81-11.526-5.43-2.812-3.647-4.218-8.352-4.218-14.115zm3.382.125c0 4.873 1.1 8.826 3.3 11.86 2.2 3.036 5.443 4.553 9.73 4.553 2.952 0 5.458-.752 7.518-2.255 2.088-1.532 3.592-3.285 4.51-5.262v-19.42c-.918-1.921-2.436-3.578-4.552-4.97-2.088-1.392-4.608-2.088-7.559-2.088-4.288 0-7.517 1.503-9.689 4.51-2.172 3.007-3.258 6.933-3.258 11.777v1.295zM27.522 62l14.45-22.72 3.759-.291 9.856-15.453h12.236l-13.99 22.135-4.385.208L39.842 62h-12.32zm.626-38.464h14.826l9.731 15.87 1.504.376L68.45 62H53.624L43.392 45.17l-1.42-.335-13.824-21.299zM6.14 62V16.812c0-5.485 1.642-9.633 4.927-12.445 3.286-2.84 7.768-4.26 13.448-4.26 1.197 0 2.283.07 3.258.209 1.002.139 2.046.32 3.132.543l-.585 10.315c-.501-.083-1.058-.18-1.67-.292a11.047 11.047 0 0 0-2.047-.167c-2.116 0-3.745.64-4.886 1.92-1.114 1.282-1.67 3.37-1.67 6.265v6.933l.208.418V62H6.14zM.083 33.726v-10.19h27.73v10.19H.084z" fill="#fff"/></svg>